# xmcd CD database file
#
# Track frame offsets:
#	150
#	22447
#	39645
#	57317
#	76612
#	95645
#	118035
#	138767
#	160870
#	178072
#	195800
#	216442
#	234945
#	244885
#	264090
#
# Disc length: 3786 seconds
#
# Revision: 3
# Processed by: cddbd v1.5.2PL0 Copyright (c) Steve Scherf et al.
# Submitted via: CDex 1.70beta3
#
DISCID=c60ec80f
DTITLE=関ジャニ∞ - JUKE BOX Disc1
DYEAR=2013
DGENRE=J-Pop
TTITLE0=TAKOYAKI in my heart
TTITLE1=レスキューレスキュー
TTITLE2=Sorry Sorry love
TTITLE3=へそ曲がり
TTITLE4=青春ノスタルジー
TTITLE5=涙の答え
TTITLE6=夕闇トレイン
TTITLE7=クラゲ
TTITLE8=Dear Summer 様!!
TTITLE9=あおっぱな
TTITLE10=北風ブルース
TTITLE11=あなたへ
TTITLE12=Your WURLITZER
TTITLE13=West side!!
TTITLE14=ここにしかない景色
EXTD=YEAR: 2013
EXTT0=
EXTT1=
EXTT2=
EXTT3=
EXTT4=
EXTT5=
EXTT6=
EXTT7=
EXTT8=
EXTT9=
EXTT10=
EXTT11=
EXTT12=
EXTT13=
EXTT14=
PLAYORDER=
